<svg xmlns="http://www.w3.org/2000/svg"
    height="24" viewBox="0 0 101 88" width="24">
    <path fill="#000000"
        d="M21.5,6.5c-5.2,5.1 -1.6,14.5 5.4,14.5 7.6,0 11.4,-9.7 5.7,-14.6 -3.6,-3.1 -8,-3.1 -11.1,0.1z" stroke="#000000"/>
    <path fill="#000000"
        d="M42,17.5c0,0.8 1.5,2.2 3.3,3.1 3.1,1.5 15.7,13.2 15.7,14.5 0,0.3 -3,1.4 -6.7,2.4 -11.4,3 -15.1,5.2 -16.3,9.4 -1.4,5.1 -1.2,15.4 0.3,17.5 0.8,1.1 3.2,1.9 6.8,2.3l5.6,0.5 0.5,-4c1.9,-13.5 19.8,-17.9 28.2,-6.9 1.5,1.9 3,5.1 3.3,7.1l0.6,3.6 7.8,0 7.9,0 0,-23.6 0,-23.5 -2.2,0.6c-1.3,0.4 -8.5,3.7 -16.1,7.3l-13.8,6.6 -6.5,-7.1c-3.5,-4 -7.9,-8.1 -9.8,-9.2 -3.9,-2.5 -8.6,-2.8 -8.6,-0.6z" stroke="#00000000"/>
    <path fill="#000000"
        d="M15.5,24.4c-2.1,3.2 -6.5,17.4 -6.5,21.2 0,1.6 0.7,3.9 1.5,5 1.1,1.4 1.4,4.9 1.5,13.5 0,12.5 0.8,14.7 4.9,13.4 2.6,-0.8 2.8,-2.1 3.5,-17.1 0.5,-11.2 3.5,-25.4 5.3,-25.4 0.4,0 1.7,1 3,2.2 2.6,2.4 6,2.6 11.7,0.5 5.1,-1.8 6.7,-4.1 4.4,-6.3 -1.5,-1.5 -2.2,-1.5 -6.2,-0.4l-4.5,1.2 -6,-5.1c-6.7,-5.8 -10.1,-6.5 -12.6,-2.7z" stroke="#00000000"/>
    <path fill="#000000"
        d="M61.1,54.7c-12.6,6.2 -6.8,25.9 7.2,24 13.2,-1.8 15,-19.9 2.4,-24.6 -3.8,-1.5 -5.6,-1.4 -9.6,0.6z" stroke="#000000"/>
</svg>
